<svg xmlns="http://www.w3.org/2000/svg" xmlns:xlink="http://www.w3.org/1999/xlink" width="40" zoomAndPan="magnify" viewBox="0 0 30 30.000001" height="40" preserveAspectRatio="xMidYMid meet" version="1.0"><defs><clipPath id="469ab80cfb"><path d="M 6.304688 1.089844 L 17.894531 1.089844 L 17.894531 20.683594 L 6.304688 20.683594 Z M 6.304688 1.089844 " clip-rule="nonzero"/></clipPath><clipPath id="0322851c37"><path d="M 12.078125 8 L 23.691406 8 L 23.691406 27.570312 L 12.078125 27.570312 Z M 12.078125 8 " clip-rule="nonzero"/></clipPath><clipPath id="081b12f661"><path d="M 8 9 L 21 9 L 21 22 L 8 22 Z M 8 9 " clip-rule="nonzero"/></clipPath><clipPath id="066217e4f7"><path d="M 21.507812 11.21875 L 10.503906 22.222656 L 7.804688 19.527344 L 18.8125 8.523438 Z M 21.507812 11.21875 " clip-rule="nonzero"/></clipPath><clipPath id="af95fd50f0"><path d="M 20.480469 12.246094 L 11.539062 21.1875 C 10.972656 21.753906 10.054688 21.753906 9.484375 21.1875 L 8.84375 20.542969 C 8.277344 19.976562 8.277344 19.058594 8.84375 18.492188 L 17.785156 9.550781 C 18.351562 8.984375 19.269531 8.984375 19.835938 9.550781 L 20.480469 10.191406 C 21.046875 10.761719 21.046875 11.679688 20.480469 12.246094 Z M 20.480469 12.246094 " clip-rule="nonzero"/></clipPath><clipPath id="81fdd9f69b"><path d="M 8 9 L 21 9 L 21 22 L 8 22 Z M 8 9 " clip-rule="nonzero"/></clipPath><clipPath id="146e20fc56"><path d="M 21.507812 11.21875 L 10.730469 21.996094 L 8.164062 19.429688 L 18.941406 8.652344 Z M 21.507812 11.21875 " clip-rule="nonzero"/></clipPath><clipPath id="6464457813"><path d="M 21.503906 11.222656 L 10.476562 22.25 L 7.777344 19.546875 L 18.804688 8.523438 Z M 21.503906 11.222656 " clip-rule="nonzero"/></clipPath><clipPath id="a9eca8eb16"><path d="M 20.476562 12.25 L 11.542969 21.183594 C 10.976562 21.75 10.054688 21.75 9.488281 21.183594 L 8.847656 20.542969 C 8.28125 19.976562 8.28125 19.058594 8.847656 18.492188 L 17.785156 9.554688 C 18.351562 8.988281 19.269531 8.988281 19.835938 9.554688 L 20.476562 10.195312 C 21.042969 10.761719 21.042969 11.683594 20.476562 12.25 Z M 20.476562 12.25 " clip-rule="nonzero"/></clipPath></defs><g clip-path="url(#469ab80cfb)"><path fill="#00ff84" d="M 15.871094 1.472656 L 6.304688 11.035156 L 15.9375 20.667969 L 17.898438 18.710938 L 10.222656 11.035156 L 17.832031 3.429688 L 15.871094 1.472656 " fill-opacity="1" fill-rule="nonzero"/></g><g clip-path="url(#0322851c37)"><path fill="#00ff84" d="M 14.125 8.355469 L 23.691406 17.921875 L 14.058594 27.554688 L 12.097656 25.597656 L 19.773438 17.921875 L 12.164062 10.316406 L 14.125 8.355469 " fill-opacity="1" fill-rule="nonzero"/></g><g clip-path="url(#081b12f661)"><g clip-path="url(#066217e4f7)"><g clip-path="url(#af95fd50f0)"><path fill="#000000" d="M 21.507812 11.21875 L 10.511719 22.214844 L 7.816406 19.519531 L 18.8125 8.523438 Z M 21.507812 11.21875 " fill-opacity="1" fill-rule="nonzero"/></g></g></g><g clip-path="url(#81fdd9f69b)"><g clip-path="url(#146e20fc56)"><g clip-path="url(#6464457813)"><g clip-path="url(#a9eca8eb16)"><path stroke-linecap="butt" transform="matrix(-0.513223, 0.513223, -0.513223, -0.513223, 21.50418, 11.22236)" fill="none" stroke-linejoin="miter" d="M 2.002307 -0.0000220752 L 19.409166 -0.0000220752 C 20.512793 -0.0000220752 21.410916 0.898102 21.410916 2.001729 L 21.410916 3.249969 C 21.410916 4.353596 20.516598 5.247914 19.412971 5.247914 L 1.998501 5.247914 C 0.894874 5.247914 0.000555845 4.353596 0.000555845 3.249969 L 0.000555845 2.001729 C 0.000555845 0.898102 0.89868 -0.0000220752 2.002307 -0.0000220752 Z M 2.002307 -0.0000220752 " stroke="#00ff84" stroke-width="2" stroke-opacity="1" stroke-miterlimit="4"/></g></g></g></g></svg>