<svg xmlns="http://www.w3.org/2000/svg" xmlns:xlink="http://www.w3.org/1999/xlink" width="50" zoomAndPan="magnify" viewBox="0 0 37.5 37.499999" height="50" preserveAspectRatio="xMidYMid meet" version="1.0"><defs><clipPath id="37d0e41fda"><path d="M 6.542969 10 L 19 10 L 19 29 L 6.542969 29 Z M 6.542969 10 " clip-rule="nonzero"/></clipPath><clipPath id="f6914c2526"><path d="M 6.542969 8 L 30.226562 8 L 30.226562 35.15625 L 6.542969 35.15625 Z M 6.542969 8 " clip-rule="nonzero"/></clipPath><clipPath id="bf25c4adf6"><path d="M 6.542969 2 L 16 2 L 16 29 L 6.542969 29 Z M 6.542969 2 " clip-rule="nonzero"/></clipPath></defs><path fill="#ffa000" d="M 22.144531 14.011719 L 18.863281 17.09375 L 15.820312 10.894531 L 17.394531 7.328125 C 17.804688 6.601562 18.445312 6.613281 18.84375 7.328125 Z M 22.144531 14.011719 " fill-opacity="1" fill-rule="nonzero"/><g clip-path="url(#37d0e41fda)"><path fill="#f57f17" d="M 15.820312 10.894531 L 18.863281 17.09375 L 6.601562 28.613281 Z M 15.820312 10.894531 " fill-opacity="1" fill-rule="nonzero"/></g><g clip-path="url(#f6914c2526)"><path fill="#ffca28" d="M 25.734375 9.300781 C 26.320312 8.730469 26.925781 8.925781 27.082031 9.730469 L 30.273438 28.457031 L 19.691406 34.871094 C 19.324219 35.078125 18.339844 35.167969 18.339844 35.167969 C 18.339844 35.167969 17.445312 35.058594 17.105469 34.855469 L 6.601562 28.613281 Z M 25.734375 9.300781 " fill-opacity="1" fill-rule="nonzero"/></g><g clip-path="url(#bf25c4adf6)"><path fill="#ffa000" d="M 15.820312 10.894531 L 6.605469 28.613281 L 10.707031 2.71875 C 10.859375 1.910156 11.316406 1.832031 11.71875 2.542969 Z M 15.820312 10.894531 " fill-opacity="1" fill-rule="nonzero"/></g></svg>