<svg xmlns="http://www.w3.org/2000/svg" xmlns:xlink="http://www.w3.org/1999/xlink" width="50" zoomAndPan="magnify" viewBox="0 0 37.5 37.499999" height="50" preserveAspectRatio="xMidYMid meet" version="1.0"><defs><clipPath id="c6a09d8721"><path d="M 0.507812 2 L 36.773438 2 L 36.773438 35 L 0.507812 35 Z M 0.507812 2 " clip-rule="nonzero"/></clipPath></defs><g clip-path="url(#c6a09d8721)"><path fill="#00d8ff" d="M 30.304688 12.878906 C 29.933594 12.753906 29.542969 12.632812 29.140625 12.515625 C 29.207031 12.25 29.269531 11.988281 29.324219 11.726562 C 30.203125 7.480469 29.628906 4.058594 27.65625 2.929688 C 25.769531 1.851562 22.679688 2.976562 19.558594 5.667969 C 19.261719 5.929688 18.957031 6.203125 18.660156 6.488281 C 18.457031 6.300781 18.257812 6.117188 18.058594 5.941406 C 14.789062 3.0625 11.511719 1.847656 9.542969 2.976562 C 7.65625 4.0625 7.097656 7.277344 7.894531 11.304688 C 7.96875 11.695312 8.058594 12.089844 8.160156 12.496094 C 7.695312 12.625 7.25 12.765625 6.820312 12.914062 C 2.988281 14.238281 0.539062 16.316406 0.539062 18.472656 C 0.539062 20.695312 3.167969 22.929688 7.160156 24.285156 C 7.476562 24.390625 7.800781 24.492188 8.140625 24.585938 C 8.03125 25.023438 7.933594 25.449219 7.855469 25.867188 C 7.097656 29.824219 7.6875 32.964844 9.570312 34.042969 C 11.515625 35.15625 14.777344 34.011719 17.953125 31.257812 C 18.207031 31.039062 18.457031 30.808594 18.707031 30.566406 C 19.035156 30.878906 19.363281 31.175781 19.6875 31.453125 C 22.765625 34.078125 25.804688 35.140625 27.683594 34.058594 C 29.625 32.945312 30.257812 29.570312 29.4375 25.464844 C 29.375 25.152344 29.300781 24.832031 29.21875 24.503906 C 29.449219 24.4375 29.675781 24.367188 29.894531 24.296875 C 34.042969 22.929688 36.746094 20.726562 36.746094 18.472656 C 36.746094 16.308594 34.21875 14.214844 30.304688 12.878906 Z M 29.40625 22.839844 C 29.210938 22.90625 29.003906 22.96875 28.800781 23.027344 C 28.339844 21.589844 27.722656 20.058594 26.964844 18.476562 C 27.6875 16.933594 28.28125 15.425781 28.726562 13.996094 C 29.097656 14.101562 29.457031 14.214844 29.804688 14.332031 C 33.152344 15.476562 35.195312 17.167969 35.195312 18.472656 C 35.195312 19.859375 32.992188 21.660156 29.40625 22.839844 Z M 27.917969 25.761719 C 28.28125 27.578125 28.332031 29.21875 28.09375 30.503906 C 27.878906 31.65625 27.445312 32.425781 26.910156 32.730469 C 25.765625 33.386719 23.328125 32.535156 20.695312 30.289062 C 20.394531 30.03125 20.089844 29.757812 19.785156 29.464844 C 20.804688 28.359375 21.824219 27.074219 22.820312 25.644531 C 24.570312 25.488281 26.222656 25.238281 27.722656 24.894531 C 27.796875 25.191406 27.863281 25.480469 27.917969 25.761719 Z M 12.882812 32.617188 C 11.769531 33.007812 10.882812 33.019531 10.34375 32.714844 C 9.203125 32.058594 8.726562 29.539062 9.375 26.15625 C 9.449219 25.769531 9.539062 25.371094 9.640625 24.960938 C 11.121094 25.289062 12.765625 25.523438 14.519531 25.664062 C 15.519531 27.0625 16.570312 28.347656 17.625 29.472656 C 17.394531 29.691406 17.164062 29.902344 16.9375 30.101562 C 15.53125 31.320312 14.125 32.183594 12.882812 32.617188 Z M 7.660156 22.832031 C 5.894531 22.230469 4.4375 21.457031 3.4375 20.605469 C 2.539062 19.84375 2.085938 19.085938 2.085938 18.472656 C 2.085938 17.164062 4.050781 15.496094 7.332031 14.359375 C 7.726562 14.222656 8.144531 14.09375 8.578125 13.972656 C 9.03125 15.433594 9.625 16.960938 10.339844 18.507812 C 9.613281 20.074219 9.011719 21.628906 8.554688 23.109375 C 8.246094 23.019531 7.949219 22.929688 7.660156 22.832031 Z M 9.410156 11.011719 C 8.730469 7.558594 9.183594 4.957031 10.320312 4.304688 C 11.53125 3.609375 14.210938 4.601562 17.03125 7.089844 C 17.214844 7.246094 17.394531 7.414062 17.578125 7.585938 C 16.523438 8.707031 15.484375 9.980469 14.492188 11.371094 C 12.789062 11.527344 11.160156 11.78125 9.660156 12.117188 C 9.566406 11.742188 9.484375 11.371094 9.410156 11.011719 Z M 25.027344 14.835938 C 24.667969 14.222656 24.300781 13.621094 23.925781 13.039062 C 25.082031 13.183594 26.1875 13.375 27.226562 13.613281 C 26.917969 14.605469 26.527344 15.640625 26.070312 16.703125 C 25.742188 16.085938 25.394531 15.460938 25.027344 14.835938 Z M 18.660156 8.683594 C 19.375 9.449219 20.085938 10.304688 20.789062 11.234375 C 20.082031 11.199219 19.363281 11.183594 18.640625 11.183594 C 17.925781 11.183594 17.214844 11.199219 16.511719 11.230469 C 17.214844 10.3125 17.933594 9.457031 18.660156 8.683594 Z M 12.25 14.847656 C 11.890625 15.460938 11.550781 16.082031 11.226562 16.703125 C 10.777344 15.644531 10.394531 14.601562 10.078125 13.59375 C 11.109375 13.367188 12.210938 13.179688 13.359375 13.035156 C 12.980469 13.625 12.609375 14.226562 12.25 14.847656 Z M 13.394531 24.015625 C 12.207031 23.882812 11.089844 23.707031 10.054688 23.480469 C 10.375 22.457031 10.769531 21.394531 11.230469 20.3125 C 11.554688 20.933594 11.894531 21.554688 12.257812 22.171875 C 12.625 22.800781 13.003906 23.414062 13.394531 24.015625 Z M 18.703125 28.367188 C 17.96875 27.582031 17.238281 26.714844 16.523438 25.78125 C 17.214844 25.808594 17.925781 25.824219 18.640625 25.824219 C 19.378906 25.824219 20.109375 25.804688 20.828125 25.773438 C 20.121094 26.722656 19.410156 27.59375 18.703125 28.367188 Z M 26.082031 20.257812 C 26.566406 21.351562 26.976562 22.410156 27.300781 23.417969 C 26.25 23.652344 25.117188 23.84375 23.921875 23.988281 C 24.300781 23.398438 24.667969 22.785156 25.035156 22.160156 C 25.402344 21.523438 25.753906 20.890625 26.082031 20.257812 Z M 23.695312 21.394531 C 23.128906 22.367188 22.546875 23.296875 21.957031 24.171875 C 20.882812 24.25 19.773438 24.289062 18.640625 24.289062 C 17.515625 24.289062 16.417969 24.253906 15.363281 24.183594 C 14.75 23.296875 14.15625 22.367188 13.59375 21.402344 C 13.035156 20.441406 12.519531 19.472656 12.050781 18.507812 C 12.519531 17.542969 13.03125 16.570312 13.589844 15.613281 C 14.148438 14.652344 14.738281 13.722656 15.347656 12.839844 C 16.421875 12.757812 17.527344 12.71875 18.640625 12.71875 C 19.765625 12.71875 20.867188 12.757812 21.945312 12.839844 C 22.542969 13.71875 23.128906 14.640625 23.691406 15.605469 C 24.257812 16.578125 24.777344 17.539062 25.25 18.488281 C 24.78125 19.449219 24.257812 20.421875 23.695312 21.394531 Z M 26.882812 4.257812 C 28.097656 4.953125 28.570312 7.75 27.804688 11.417969 C 27.757812 11.652344 27.703125 11.890625 27.644531 12.132812 C 26.140625 11.789062 24.511719 11.53125 22.804688 11.375 C 21.808594 9.96875 20.777344 8.691406 19.742188 7.585938 C 20.019531 7.320312 20.300781 7.066406 20.574219 6.828125 C 23.25 4.519531 25.746094 3.609375 26.882812 4.257812 Z M 18.640625 15.261719 C 20.425781 15.261719 21.875 16.699219 21.875 18.46875 C 21.875 20.242188 20.425781 21.675781 18.640625 21.675781 C 16.859375 21.675781 15.410156 20.242188 15.410156 18.46875 C 15.410156 16.699219 16.859375 15.261719 18.640625 15.261719 Z M 18.640625 15.261719 " fill-opacity="1" fill-rule="nonzero"/></g></svg>